<svg width="37" height="37" viewBox="0 0 37 37" fill="none" xmlns="http://www.w3.org/2000/svg">
<g id="Group 1171276382">
<circle id="Ellipse 5" cx="18.5" cy="18.5" r="18.5" fill="#ECF6FF"/>
<g id="Group 427322759">
<g id="Group 1597890526">
<g id="Group 16">
<path id="Vector" d="M15.2938 15.4803L20.294 12.8044C21.4462 12.1879 21.8804 10.754 21.2638 9.60182C20.6472 8.44965 19.2134 8.01547 18.0612 8.63205L13.061 11.3079C11.753 12.0069 10.7675 13.1864 10.3122 14.5978L14.8436 15.97C14.934 15.7606 15.0927 15.5879 15.2938 15.4803Z" fill="#42C6B6"/>
<path id="Vector_2" d="M16.2548 17.2693C16.0692 17.3687 15.8572 17.4078 15.6483 17.3812C15.4394 17.3545 15.244 17.2635 15.0893 17.1207C14.9345 16.9779 14.8281 16.7904 14.7848 16.5843C14.7415 16.3782 14.7635 16.1638 14.8477 15.9708L10.3163 14.5986C9.9611 15.6885 9.94015 16.8597 10.2562 17.9616C10.5722 19.0635 11.2107 20.0456 12.0895 20.7816C12.9683 21.5175 14.0473 21.9737 15.1875 22.0913C16.3277 22.209 17.4771 21.9827 18.4876 21.4417L20.8162 20.1955L18.5834 16.0231L16.2548 17.2693Z" fill="#44A8FF"/>
<path id="Vector_3" d="M24.6578 25.8091C26.0015 25.09 27.0046 23.8666 27.4462 22.408C27.8879 20.9494 27.7321 19.375 27.013 18.0313C26.2939 16.6876 25.0705 15.6846 23.6119 15.2429C22.1533 14.8012 20.5789 14.9571 19.2352 15.6762L18.5836 16.0249L20.8164 20.1973L21.4681 19.8485C21.7052 19.7216 21.983 19.6941 22.2404 19.7721C22.4978 19.85 22.7137 20.027 22.8406 20.2642C22.9675 20.5013 22.995 20.7791 22.9171 21.0365C22.8391 21.2939 22.6621 21.5098 22.425 21.6367L21.7733 21.9855L24.0061 26.1578L24.6578 25.8091Z" fill="#F39873"/>
<path id="Vector_4" d="M24.0052 26.1529L21.7724 21.9805L17.4239 24.3076C16.2717 24.9242 15.8375 26.358 16.4541 27.5102C17.0707 28.6624 18.5045 29.0966 19.6567 28.48L24.0052 26.1529Z" fill="#C482E9"/>
</g>
</g>
</g>
</g>
</svg>
